/* XPM */
static char * collect_xpm[] = {
"64 64 440 2",
"  	c #6B9513",
". 	c #648D12",
"+ 	c #76A11B",
"@ 	c #80AB28",
"# 	c #89B42E",
"$ 	c #75A215",
"% 	c #69950D",
"& 	c #6C9619",
"* 	c #7EA923",
"= 	c #85B126",
"- 	c #79A615",
"; 	c #81AD23",
"> 	c #7DAA1C",
", 	c #84B122",
"' 	c #79A51C",
") 	c #80AC21",
"! 	c #6D9A0C",
"~ 	c #729D14",
"{ 	c #6E9A13",
"] 	c #83AF25",
"^ 	c #87B22D",
"/ 	c #7EA82A",
"( 	c #729D1B",
"_ 	c #88B233",
": 	c #81AD1D",
"< 	c #76A221",
"[ 	c #8CAE2D",
"} 	c #84A828",
"| 	c #679919",
"1 	c #679212",
"2 	c #7FA82F",
"3 	c #89B432",
"4 	c #578200",
"5 	c #628D09",
"6 	c #699505",
"7 	c #7AA522",
"8 	c #80A92F",
"9 	c #82AD28",
"0 	c #679B13",
"a 	c #8EB934",
"b 	c #80A322",
"c 	c #6E991A",
"d 	c #83B21E",
"e 	c #81AF17",
"f 	c #7BA915",
"g 	c #6C9906",
"h 	c #75A30D",
"i 	c #88B526",
"j 	c #759F21",
"k 	c #79A70F",
"l 	c #83A71D",
"m 	c #8DB12E",
"n 	c #659A0C",
"o 	c #80AB26",
"p 	c #82AC2F",
"q 	c #719D0C",
"r 	c #659205",
"s 	c #83B11B",
"t 	c #799D0B",
"u 	c #7B9D1B",
"v 	c #84AF2D",
"w 	c #82AB33",
"x 	c #66920B",
"y 	c #5E8902",
"z 	c #628D04",
"A 	c #75A915",
"B 	c #7CA529",
"C 	c #8FBC2C",
"D 	c #8AB52C",
"E 	c #87A623",
"F 	c #6CA20D",
"G 	c #88B237",
"H 	c #87B424",
"I 	c #749515",
"J 	c #5A8502",
"K 	c #96C334",
"L 	c #89AD29",
"M 	c #7CB11E",
"N 	c #84B025",
"O 	c #5C8608",
"P 	c #8CAD2B",
"Q 	c #86B132",
"R 	c #7CB024",
"S 	c #93B233",
"T 	c #92BE35",
"U 	c #91BB3B",
"V 	c #83AD31",
"W 	c #6F8D11",
"X 	c #85A429",
"Y 	c #76AA1C",
"Z 	c #819F25",
"` 	c #8BB72E",
" .	c #87B22C",
"..	c #76AA21",
"+.	c #75951C",
"@.	c #7D9F25",
"#.	c #5C820E",
"$.	c #121C01",
"%.	c #0C1501",
"&.	c #081000",
"*.	c #0B1300",
"=.	c #0D1601",
"-.	c #101902",
";.	c #0F1802",
">.	c #0A1300",
",.	c #101A01",
"'.	c #5A7F0E",
").	c #6A8711",
"!.	c #86B22B",
"~.	c #6E9913",
"{.	c #638C0A",
"].	c #577D03",
"^.	c #698F17",
"/.	c #576905",
"(.	c #560C00",
"_.	c #560000",
":.	c #571001",
"<.	c #6B8018",
"[.	c #618910",
"}.	c #729A1E",
"|.	c #6B9217",
"1.	c #80A82F",
"2.	c #7FAB22",
"3.	c #304504",
"4.	c #121B02",
"5.	c #0F1901",
"6.	c #641000",
"7.	c #A80000",
"8.	c #A90000",
"9.	c #690E00",
"0.	c #0E1801",
"a.	c #2E4206",
"b.	c #81AB30",
"c.	c #89AE1E",
"d.	c #668E11",
"e.	c #698A1B",
"f.	c #6E3302",
"g.	c #710000",
"h.	c #870000",
"i.	c #AA0000",
"j.	c #AB0000",
"k.	c #890000",
"l.	c #6E2C02",
"m.	c #678624",
"n.	c #5E8415",
"o.	c #79A515",
"p.	c #7CA81C",
"q.	c #526F0F",
"r.	c #250C00",
"s.	c #A02727",
"t.	c #D8B8B8",
"u.	c #DABCBC",
"v.	c #C99494",
"w.	c #AB0E0E",
"x.	c #A00000",
"y.	c #260B01",
"z.	c #506A17",
"A.	c #77A415",
"B.	c #759A07",
"C.	c #5F8709",
"D.	c #4F6C0A",
"E.	c #764708",
"F.	c #8B2020",
"G.	c #AD4646",
"H.	c #FCFAFA",
"I.	c #FFFFFF",
"J.	c #E2CCCC",
"K.	c #AE2F2F",
"L.	c #AC1515",
"M.	c #A70000",
"N.	c #7A4208",
"O.	c #506B12",
"P.	c #658C11",
"Q.	c #7DA91C",
"R.	c #73A015",
"S.	c #628413",
"T.	c #250B00",
"U.	c #DCBFBF",
"V.	c #ECDEDE",
"W.	c #FEFDFD",
"X.	c #F7F2F2",
"Y.	c #EBDCDC",
"Z.	c #C78E8E",
"`.	c #900000",
" +	c #270500",
".+	c #628113",
"++	c #81AD24",
"@+	c #83AE25",
"#+	c #6E9712",
"$+	c #324704",
"%+	c #9E0000",
"&+	c #A82727",
"*+	c #ECDDDD",
"=+	c #FEFEFE",
"-+	c #D0A4A4",
";+	c #733203",
">+	c #3A4F0E",
",+	c #7AA227",
"'+	c #AD2424",
")+	c #E4CFCF",
"!+	c #F6F0F0",
"~+	c #FFFEFE",
"{+	c #FBF8F8",
"]+	c #F5EEEE",
"^+	c #CB9A9A",
"/+	c #760000",
"(+	c #0E1701",
"_+	c #6B9318",
":+	c #6FA319",
"<+	c #689011",
"[+	c #0D1701",
"}+	c #AB0202",
"|+	c #AE2B2B",
"1+	c #B34C4C",
"2+	c #AF3939",
"3+	c #AC1D1D",
"4+	c #658C17",
"5+	c #8BAE23",
"6+	c #4F7301",
"7+	c #63790D",
"8+	c #641200",
"9+	c #E6D3D3",
"0+	c #E8D7D7",
"a+	c #D2ABAB",
"b+	c #AC1111",
"c+	c #8A0000",
"d+	c #651301",
"e+	c #566902",
"f+	c #527606",
"g+	c #5D8F09",
"h+	c #131E01",
"i+	c #560D00",
"j+	c #AD2222",
"k+	c #AD2323",
"l+	c #AC1919",
"m+	c #0C1301",
"n+	c #73960D",
"o+	c #091200",
"p+	c #000000",
"q+	c #688B04",
"r+	c #7A9D16",
"s+	c #8DB92E",
"t+	c #070F00",
"u+	c #0F1701",
"v+	c #540000",
"w+	c #A60000",
"x+	c #0E1601",
"y+	c #0D0000",
"z+	c #230000",
"A+	c #740000",
"B+	c #0F1801",
"C+	c #640000",
"D+	c #980000",
"E+	c #A40000",
"F+	c #990000",
"G+	c #A10000",
"H+	c #970000",
"I+	c #4C0000",
"J+	c #92B52B",
"K+	c #1F0000",
"L+	c #2A0000",
"M+	c #1A0000",
"N+	c #260000",
"O+	c #960000",
"P+	c #780000",
"Q+	c #190000",
"R+	c #080000",
"S+	c #81A517",
"T+	c #070000",
"U+	c #6A0000",
"V+	c #860000",
"W+	c #8C4343",
"X+	c #ABA9A9",
"Y+	c #ACACAC",
"Z+	c #ABAAAA",
"`+	c #915A5A",
" @	c #880000",
".@	c #8C0000",
"+@	c #5C0000",
"@@	c #121D01",
"#@	c #060C00",
"$@	c #050505",
"%@	c #0C0C0C",
"&@	c #0B0505",
"*@	c #0A0000",
"=@	c #676666",
"-@	c #EEF1EC",
";@	c #DAE2D3",
">@	c #FDFDFD",
",@	c #DCE4D4",
"'@	c #6C7362",
")@	c #430000",
"!@	c #0E0404",
"~@	c #140C0C",
"{@	c #0A0505",
"]@	c #050B00",
"^@	c #040A00",
"/@	c #82AC16",
"(@	c #769B23",
"_@	c #4E7006",
":@	c #091100",
"<@	c #4C4C4C",
"[@	c #747474",
"}@	c #4B4B4B",
"|@	c #666666",
"1@	c #F3F4F1",
"2@	c #E7ECE2",
"3@	c #E8EDE2",
"4@	c #767A71",
"5@	c #120000",
"6@	c #670000",
"7@	c #680000",
"8@	c #250000",
"9@	c #434343",
"0@	c #505050",
"a@	c #091101",
"b@	c #63841F",
"c@	c #698E1B",
"d@	c #5D8404",
"e@	c #5D5D5D",
"f@	c #8E8E8E",
"g@	c #646464",
"h@	c #323232",
"i@	c #101010",
"j@	c #676767",
"k@	c #FBFBFB",
"l@	c #FCFCFC",
"m@	c #8A8A8A",
"n@	c #040404",
"o@	c #2F2F2F",
"p@	c #333333",
"q@	c #636363",
"r@	c #071000",
"s@	c #729A19",
"t@	c #141E03",
"u@	c #8F8F8F",
"v@	c #D0D0D0",
"w@	c #ECECEC",
"x@	c #E1E1E1",
"y@	c #EFEFEF",
"z@	c #D7D7D7",
"A@	c #919191",
"B@	c #081100",
"C@	c #719A18",
"D@	c #304404",
"E@	c #5E6458",
"F@	c #878787",
"G@	c #D1D1D1",
"H@	c #F1F1F1",
"I@	c #898989",
"J@	c #848484",
"K@	c #EDEDED",
"L@	c #999999",
"M@	c #707070",
"N@	c #F2F2F2",
"O@	c #F4F4F4",
"P@	c #D8D8D8",
"Q@	c #888888",
"R@	c #61665D",
"S@	c #2B3F03",
"T@	c #729825",
"U@	c #7FB02A",
"V@	c #89B32E",
"W@	c #527412",
"X@	c #1E211C",
"Y@	c #767676",
"Z@	c #EEEEEE",
"`@	c #484848",
" #	c #424242",
".#	c #DEDEDE",
"+#	c #9A9A9A",
"@#	c #7D7D7D",
"##	c #20211F",
"$#	c #618026",
"%#	c #7CA722",
"&#	c #729C1B",
"*#	c #698E1C",
"=#	c #3D580A",
"-#	c #646B5E",
";#	c #D6D6D6",
">#	c #DADADA",
",#	c #9C9C9C",
"'#	c #EAEAEA",
")#	c #E3E3E3",
"!#	c #686D64",
"~#	c #486216",
"{#	c #749929",
"]#	c #6A9313",
"^#	c #456110",
"/#	c #1F201E",
"(#	c #868686",
"_#	c #A5A5A5",
":#	c #F9F9F9",
"<#	c #C1C1C1",
"[#	c #929292",
"}#	c #435D13",
"|#	c #8FB83A",
"1#	c #628816",
"2#	c #537414",
"3#	c #5E635A",
"4#	c #727272",
"5#	c #B1B1B1",
"6#	c #BBBBBB",
"7#	c #CBCBCB",
"8#	c #CACACA",
"9#	c #939393",
"0#	c #626262",
"a#	c #61655D",
"b#	c #5F801E",
"c#	c #6E912A",
"d#	c #82AA33",
"e#	c #78A321",
"f#	c #364B0A",
"g#	c #535451",
"h#	c #8C8C8C",
"i#	c #8D8D8D",
"j#	c #585956",
"k#	c #2D4006",
"l#	c #80A932",
"m#	c #82A724",
"n#	c #7AA422",
"o#	c #81A82E",
"p#	c #6C931D",
"q#	c #70961E",
"r#	c #688830",
"s#	c #474846",
"t#	c #464646",
"u#	c #55712C",
"v#	c #587D0F",
"w#	c #6E9323",
"x#	c #6A901D",
"y#	c #7EA72A",
"z#	c #698F16",
"A#	c #0C1401",
"B#	c #4A6D05",
"C#	c #8CB830",
"D#	c #6DA214",
"E#	c #86B41D",
"F#	c #5F9103",
"G#	c #84B124",
"  . + @ # $ $ % % & * * = - ; > , + ' ) ! ~ { + $ ] ~ ' + ^ / &   . ( ] _ $ $   % & * * = - : > ; + ' > % ~ { $ + ; $ < < [ } | ",
"1 2 ( 3 ^ 4 5 % ~ ( * # ] { > > = - , > 6 ~ ! ~ { ' % { > # 7 { 1 8 ( _ # 4 5 % ~ ( 7 # 9 ~ > > = - , > 6 $ { ~   > % 0 < a b | ",
"' 7 & c ( 7 $ = ~ { ( ^ ' ] ~ % d d e f $ g h > ! * ~ $ $ f i % ' 7 & c j + $ = ~ { ~ # ' ] { % d d > f k g g > ! > $ h $ l m n ",
"o p p j ( 7 ( 7 ~ - * * * ; q r e f h k e f f f $ - > - h $ , $ ] 8 8 < ( 7 ~ ) ~ + * ) ) ] ! 6 e f k k e f s $ $ ' f f t u ] h ",
"v * ' ~ ~ w 2 2 + ; : + * ~ x y - g q f k g g z ' ! ! h k - * * # * + { ( w 8 8 + ; , + * ~ r y - g ! f k g g z ' ! ! h - u } A ",
"o * $ 5 5 B B ( 1 - -   * + i ; C ! h f h g z 6 = ! % h d > { ( 7 ) $ 5 5 B 7 ( 1 - -   * + D ; C q h > h g r 6 , 0 6 h d E ~ F ",
"+ @ G B ( * ~ % % ] v %   4 ~ $ > 6 - g q , ~ $ ' { { > , f q q - 8 G B j * ~ % x ] v 1 & 4 ~ ~ > 6 - g q H q $ ' ~ ! f d E I F ",
"% ( w w 8 # > - + ^ _ / < J ( ~ - : K ! ! > r q ! ( ~ ' $ : s s % ( 8 w 8 # ' - ~ # G @ ' J ( ~ - : K ! ! > r { ! ( ~ - t E L M ",
"% 1 5 ~ j / ( * ( ' + 1 ( c * ( ~ > > > > ~ q   { * ; $ ! H # N     O { j / ( * + + + 1 ( { / + ~ > > > > ~ % { { * * h ! P 3 > ",
"{ ' 4 ~ 7 7 & / 7 > * + 2 * < 5 5 Q 9 % ; + ^   5 + ; $ f D (   ~ ' 4 ~ 7 7 & / / ' @ ( 8 * ( 5 5 # o x ] - #   z ( R $ f S u n ",
"* 7 # ( 7 * ( 2 8 ^ y 7 G Q ( * ^ a % > % % T 7 7 * + - , , ( ( 7 7 # + 7 * ( @ 8 # y 7 G G c * v a % > % 5 a * 7 * ( - i P ( $ ",
"7 * p 7 ' j ( 7   * ( U j 7 v ( 5 * 1 J     ( z ( * ~ z % 6 z { * * # * 7 < ( <   * ( U + * V ~ 5 * { J % & ( z ~ * $ r 6 W 5 n ",
"9 ^ 2 c j 7 > : 1 7 8 V * 7 8   5 < ~ 4 + ( { z   ' ~ 7 7 e > f ; ^ B c j 7 * * % B 8 ^ B < p   1 ( ( 4 + ( { z | < { - + X X Y ",
"~ 7 c . ' 7 + 9 + w @ & _ ( + 7 ' & 9 ( ' { 7 * ' ( ( 5   - : $ ~ 7 & 1 j 7 ( ] + 8 8 & _ ( + 7 7 ~ @ ~ ' ~ 7 * ' + $ r q Z 8 $ ",
"7 = ~ ~ ( 1 . B j @ 7 ( @ 5 7 v * ( a ( ( 1 7 ` ' * N - > * _ 2 7 ] ! $ (   . B j / 7 ( * x B  .7 ( a ( ( % 7 _ ' * ] - 7 X S ..",
"7 ; ! - 1 O . w & & { * ( ~ 7   ( ^ 7 ' ' + + ' ~ N * D ;   7 * 7 ] ! -   O . 8 &   { 7 ( { 7   ( v 7 ' + ' + ' ~ ] ; i 9 +.@.Y ",
"7 T # { ( { ( _ & & ( ( & ' + x ( 3 5 7 ' * ~ % r > #.$.%.&.*.=.%.-.;.>.,.'.( _ &   ( ( { ' 7 x ( ` 5 ' ' * ~ % x * ! $ ' ).+...",
"x ' 9 & _ 9 ~ * + 8 v % 5 { * !.% ~ % + x ~ ~.{.].^./.(._._._._._._._._.:.<.[.}.|.1.V x 5 { 7 !.% ~ % ( x ~ { ! z $ z n ] I u + ",
"5   * > # r > 7 ( v o ( q ! - i ' ~ ; - > 6 2.3.4.5.6.7.8.8.8.8.8.8.8.8.7.9.5.0.a.b./ $ q ! - = ' ~ ] - > x ; ~ # > ! d h c.' n ",
"  % % ] > $ ^ ~ & v ( + ! z ! : > h $ , D d.e.f.g.g.h.i.j.j.j.j.j.j.j.j.i.k.g.g.l.m.n.o.! r ! ] e ~ - = = $ , - , = ; f g t t 0 ",
"( { { % 5 $ ; 7 7 G v ' ! y r - d $ ! - p.q.r.s.t.u.u.v.w.j.j.j.j.j.j.j.j.j.i.i.x.y.z.A.! y r - : $ ! - : > , > $ ' $ M g B.6 r ",
"( ' ' % ~ ' r !.7 . @ > $ ! q : , ' { C.D.E.F.G.H.I.I.J.K.L.j.j.j.j.j.j.j.j.j.j.M.k.N.O.P.! q > = - ! ~ ' > > d 6 q q d - e q n ",
"* ( { $ $ - y * ( 4 ( 7 * ] 9 ] ; Q.R.S.T.F.U.V.W.I.I.X.Y.Z.j.j.j.j.j.j.j.j.j.j.j.j.`. +.+++@+] ; * $ > , ' q > 6 f f f - i l $ ",
"9 7 { > 5 ~ ! { + 7 7 + ' !.= + $ #+$+f.%+&+*+I.I.I.I.I.=+-+j.j.j.j.j.j.j.j.j.j.j.j.M.%+;+>+,++ ~ - $ $ d - ! > h $ - f - c.> Y ",
"7 7 ' # ~ + > % ( / 7 ( ~ ' ' % x P.=.g.i.'+)+!+~+I.I.{+]+^+j.j.j.j.j.j.j.j.j.j.j.j.j.j./+(+_+% x ~ { r ' $ ! : f h F f $ e l :+",
"& { ' * , ~ + % ( ( 8 7   ~ ( 5 x <+[+g.i.}+|+1+H.I.=+J.2+3+j.j.j.j.j.j.j.j.j.j.j.j.j.j./+%.4+x x $ $ 6 H - g f s > f r g 5+5+| ",
"V ' 7 * ~ - ] * O 7 ( * ] o z x 6+7+8+h.j.j.j.K.9+0+0+a+b+j.j.j.j.j.j.j.j.j.j.j.j.j.j.j.c+d+e+f+5 $ ' H > f > 6 > d $ , - 5+- g+",
"( 7 7 + ~ !.!.' J   1 _ * ( 1 ; h+i+7.i.j.j.j.}+j+k+k+l+j.j.j.j.j.j.j.j.j.j.j.j.j.j.j.j.i.7.(.m+' $ { - - - f 6 f : > M ! n+% | ",
"( @ 7 ( 5 q ~ 9 ] 7 1 7 ' * 7 ; o+_.8.j.j.j.j.j.j.j.j.j.j.j.j.j.j.j.j.j.j.j.j.j.j.j.j.j.j.8._.p+x % ~ ~ > ; , $ > > , * ~ q+q+< ",
"/ 8 * * ~ ] - + * j 7 * 7 ( ~ + o+_.8.j.j.j.j.j.j.j.j.j.j.j.j.j.j.j.j.j.j.j.j.j.j.j.j.j.j.8._.p+% y r $ H D D = ; f A * o r+z ..",
"V & * @ * 9 + + v 7 8   s+T o % t+_.8.j.j.j.j.j.j.j.j.j.j.j.j.j.j.j.j.j.j.j.j.j.j.j.j.j.j.8._.p+y x + $ * = , !.> ~ ! / # P I | ",
"7 O 7 * ' ! ~ > a / o ] D > + > u+v+w+8.j.j.j.j.j.j.j.j.j.j.j.j.j.j.j.j.j.j.j.j.j.j.j.j.j.8._.p+= $ % ' ~ + $ * ' ' ~ / ' L * 0 ",
"& 5 + o # $ $ % 1   * * !.- ; ' x+y+z+A+i.j.j.j.j.j.j.j.j.j.j.j.j.j.j.j.j.j.j.j.j.j.j.j.j.8._.p+] + > > % ~ { + + ; $ + + L } | ",
". 8 ( _ # 4 5 % ~ ( * # ] ~ > * B+p+p+C+D+E+j.j.8.F+F+F+F+F+M.j.j.j.j.j.j.j.j.j.j.j.j.j.G+H+I+p+= - ] > 6 ~ q ~ { ' n   7 J+: 0 ",
"' 7 & ( ( 7 ~ !.~   ~ ^ ' ] q g (+p+p+y+K+k.j.j.x.L+M+M+M+N+O+j.j.j.j.j.j.j.j.j.j.j.j.j.P+Q+R+p+d d f f f g ! > ! * $ $ $ S+i n ",
"] w w j ( 7 ( * ( - * * * ] ! 6 (+p+p+p+T+U+V+V+W+X+Y+Y+Y+Z+`+ @i.j.j.j.j.j.i..@V+V+V+V++@p+p+p+e f k k e f e h $ - ' Y $ t ] $ ",
"8 ; ' { ( v w / + ; , + * ~ x y @@#@p+$@%@&@*@*@=@-@;@>@=+,@'@N+M.i.i.i.i.i.M.)@*@*@!@~@{@p+]@^@- ! q f k g g z - ! | $ - r+/@' ",
"] 7 $ x 5 B 7 ( 1 - - % * + # : (@_@:@<@[@}@p+p+|@1@2@=+=+3@4@5@6@U+U+U+U+U+7@8@p+p+9@[@0@a@b@c@C g h > h g r % 9 { 6 $ H /@q $ ",
"( w G B ( * ~ % x ] ^ 1   4 ~ $ ' d@B+e@f@g@h@i@j@k@I.I.I.l@m@p+p+p+p+p+p+p+n@o@p@p@e@f@q@r@P.$ > 6 - g ! H ~ $ ' ~ ! Y 5+/@q { ",
"g ( / w 8 _ - - $ ^ _ / 7 J ( ~ ' s@t@e@u@v@w@|@j@k@I.I.I.l@m@p+p+p+p+p+p+p+o@x@y@y@z@A@q@B@4+~ - ; K ! ! f 6 ! ! ( $ ' { : , * ",
"% 1 O { + * ( * ( ' + 1 ( c / ( ~ C@D@E@F@G@H@I@J@w@y@y@y@K@L@|@|@|@|@|@|@|@M@N@=+O@P@Q@R@S@T@+ ~ > ' > > ~ ! { & * U@$ ! i i ) ",
"( ' J ~ 7 B & 8 7 * * + / * ( 5 x V@++W@X@Y@L@Z@w@`@p@p@p@ #.#k@k@k@k@k@k@k@k@=+O@+#@###$#%#&#5 5 # 9 % ) ' #   5 ( / - - # - n ",
"7 ' # + 7 B ( 8 w !.J 7 G G ( * ] a x *#=#-#@#;#>#,#L@L@L@,#'#=+I.I.I.I.=+K@)#)#P@@#!#~#{#G c *  .a % ' % x a * * * ( < D 5+t + ",
"7 o  .7 ' 7 ( +   * + U ( * 9 ( x *   y ]#^#/#(#_#:#l@l@l@l@=+=+=+=+=+=+>@<#A@[#Q@##}#|#&#B Q ~ z *   y     ( 5 ~ * ( g+6 q+q+n ",
"] w 2 c ( 7 > * 1 B 8 ^ B 7 9   5 ( ( 4 + 1#2#3#4#5#6#7#7#7#7#7#7#7#7#7#8#9#0#q@a#b#c#d#7 7 V   . ( ( J + ( { z | < { + ' l l Y ",
"~ 7 & 1 j 7 - ] + w / & G ( + 7 7 ( @ ~ ' { e#f#(+(+g#h#i#i#i#i#i#i#i#i#h#j#(+-.k#l#/ & _ ( ' 7 7 ~ 9 { + { 7 * - + + 5   - m#+ ",
"7 = { $ ( . . B j * ' ( * 1 7 ^ 7 ( a ( ~ % n#o#p#q#r#s#t#t#t#t#t#t#t#t#s#u#v#w#x#y#7 ( o x 7 9 7 ( a + ( % * 3 7 * ] < 7 : # * ",
"7 9 ! - { O . w &   & * ( { 7   ( # 7 + ' + + ' ~ ] z#A#p+p+p+p+p+p+p+p+#@B#. w c     * ( { 7   ( # j ' < - + ' ~ ] o # ] q ' Y ",
"> 3 # { ( { ( G &   ( (   ' ( % ~ 3 5 ' < * ~   x > { ( 7 5 { * * C#G { (   ( _ &   c (   7 + x ( # 5 ' 7 * ~ % x > ~ + 7 q+~ * ",
"x 7 8 { 3 ] { o + 8 V % x ~ 7 !.% { ! + x ~ ~ ! z $ z % ] ! h $ % 7 9 { # = { * + p V % r { * !.% ~ % ( x ~ ~ % z + y n * q ~ :+",
"x   ] * ` r 7 7 ( V o ( q ! - i ' D#* - > r ; ~ C * ! , $ : > % 5 % * * # 6 * > + V / + ~ ! - H ' ~ ; - > r ; $ # > ! , $ /@S+n ",
"  x % ; > ~ D ~ { V ( - ! z ! ; > $ - = i $ , $ ; = : f g q ~ !   % % 9 > ~  .~ { V { - ! z ! : > ~ - = i $ , $ , = ; f g t t n ",
"~ ~ { % 5 $ * > 7 _ ^ ' ! y r f > $ ! - d > H > $ - $ d q ! x x ~ { { % r + > 7 B G ] ' % y r > : $ ! - * > = > $ f $ M ! B.6 6 ",
"( ' ' % $ - 6 !.< 1 2 ' $ ! ! > H ' ! h - > > d 6 q q d f > ~ % ( ' ' % $ - x !.' . / > $ ! q > , f ! q ' : > e 6 q F M f /@q r ",
"* ( { $ $ - y 7 ( 4 ( ' * ] = ] * * - ' ; > ! > 6 - > f - i * + * (   $ - + y 7 ( 4 ( 7 ; ] 9 ] ; * $ > , > ! > 6 - > A f 5+: $ ",
"/ 7 ~ 7 5 ~ ! { < 7 B + ' i !.- ~ - $ - : - ! > q - - > - ] * 7 2 ' ~ * 5 ~ ! { j 7 7 + > !.= ' $ - $ $ : - ! M q - f > - c.' Y ",
"7 7 ' s+~ + > x ( / 7 ( & + ' % x ~ ~ z ' $ ! s f h q f $ * * ( 7 7 ' # ~ + > % ( * j ( ~ ( ' % 6 ~ ! r ' $ g s f $ F Y $ c.' + ",
"& { ' * ; ~ $ { ( ( 8 *   ~ ~ 5 x $ $ 6 E#$ g ' : e > r g !.] c { & 7 > = ~ ~ % ( ( 8 * & ~ ~ 5 x ~ $ % H - g > e e > F#g H ] 0 ",
"Q 7 7 * ~ - ; * O 7 ( * 9 ] z x z $ ' !.> ' : 6 > s $ , - !.+ 5 # j 7 * ~ - 9 ; O 7 ( * 9 o z x 5 ~ ' H > ' > 6 > d $ G#+ 5+- g+",
"( < 7 $ $  .` ' J   . # 7 (   @ - + { - f - f 6 - d > ; !     { ( 7 7 + ( = !.' O   1 _ 7 (   ] ' + { - A - - 6 f : > * { n+n+| ",
"& / * + 5 q ~ 9 o 7 1 ' ' o > * 6 x ~ ~ > d : $ > > , ; { 5 O B c 9 7 + r q $ ] 9 7 1 + 7 * ' * % % ~ ~ > ; , $ ' > R R ~ q+z < ",
"} 8 7 * $ ; + + @ j 7 * 7 + ~ + % 5 r ~ = D D = : - - ; !.$ 5 < / / 7 * ~ ] + + @ j 7 / 7 + $ + 6 y x $ , D D H , - - 2 v r+5 < ",
"Q & 7 ] * ; + ( v 7 p { # T ] % y r + + * = ] !.* ~ g ] !.^ +.c V ( B ] * = + + ^ < 9 { ` T ; x y r + $ * , , D ' $ ! 9 V [ I | ",
"< O B * ' ! ~ 7 a * / ] # ' ' > = $ % - $ + $ * ' ' ~ * 7 ^ /   j O B * - % ~ > a * / , D ' ' ' D $ % ' ( $ $ * ' ' D#@ 7 [ m#| "};
