/* XPM */
static char * player_xpm[] = {
"64 64 132 2",
"  	c #6B9513",
". 	c #648D12",
"+ 	c #76A11B",
"@ 	c #80AB28",
"# 	c #89B42E",
"$ 	c #75A215",
"% 	c #69950D",
"& 	c #6C9619",
"* 	c #7EA923",
"= 	c #85B126",
"- 	c #79A615",
"; 	c #81AD23",
"> 	c #7DAA1C",
", 	c #84B122",
"' 	c #79A51C",
") 	c #80AC21",
"! 	c #6D9A0C",
"~ 	c #729D14",
"{ 	c #6E9A13",
"] 	c #83AF25",
"^ 	c #87B22D",
"/ 	c #7EA82A",
"( 	c #729D1B",
"_ 	c #969696",
": 	c #81AD1D",
"< 	c #76A221",
"[ 	c #8CAE2D",
"} 	c #84A828",
"| 	c #679919",
"1 	c #679212",
"2 	c #7FA82F",
"3 	c #89B432",
"4 	c #578200",
"5 	c #628D09",
"6 	c #699505",
"7 	c #7AA522",
"8 	c #BBBBCF",
"9 	c #E2E2F6",
"0 	c #82AD28",
"a 	c #679B13",
"b 	c #8EB934",
"c 	c #80A322",
"d 	c #6E991A",
"e 	c #83B21E",
"f 	c #81AF17",
"g 	c #7BA915",
"h 	c #6C9906",
"i 	c #75A30D",
"j 	c #88B526",
"k 	c #424242",
"l 	c #79A70F",
"m 	c #83A71D",
"n 	c #8DB12E",
"o 	c #659A0C",
"p 	c #80AB26",
"q 	c #82AC2F",
"r 	c #759F21",
"s 	c #719D0C",
"t 	c #659205",
"u 	c #A9624A",
"v 	c #84192C",
"w 	c #83B11B",
"x 	c #799D0B",
"y 	c #7B9D1B",
"z 	c #84AF2D",
"A 	c #82AB33",
"B 	c #66920B",
"C 	c #5E8902",
"D 	c #628D04",
"E 	c #966A3B",
"F 	c #75A915",
"G 	c #7CA529",
"H 	c #8FBC2C",
"I 	c #6A0D1F",
"J 	c #4A2C42",
"K 	c #8AB52C",
"L 	c #87A623",
"M 	c #6CA20D",
"N 	c #88B237",
"O 	c #87B424",
"P 	c #749515",
"Q 	c #80A92F",
"R 	c #88B233",
"S 	c #5A8502",
"T 	c #96C334",
"U 	c #F6C5A9",
"V 	c #C58D62",
"W 	c #734A25",
"X 	c #89AD29",
"Y 	c #7CB11E",
"Z 	c #010000",
"` 	c #000000",
" .	c #8CAD2B",
"..	c #86B132",
"+.	c #52331F",
"@.	c #7CB024",
"#.	c #93B233",
"$.	c #92BE35",
"%.	c #91BB3B",
"&.	c #83AD31",
"*.	c #6F8D11",
"=.	c #420713",
"-.	c #85A429",
";.	c #76AA1C",
">.	c #819F25",
",.	c #8BB72E",
"'.	c #87B22C",
").	c #76AA21",
"!.	c #5C8608",
"~.	c #84B025",
"{.	c #75951C",
"].	c #7D9F25",
"^.	c #6A8711",
"/.	c #86B22B",
"(.	c #89AE1E",
"_.	c #759A07",
":.	c #6FA319",
"<.	c #8BAE23",
"[.	c #5D8F09",
"}.	c #73960D",
"|.	c #688B04",
"1.	c #7A9D16",
"2.	c #8DB92E",
"3.	c #92B52B",
"4.	c #81A517",
"5.	c #82AC16",
"6.	c #86B41D",
"7.	c #7FB02A",
"8.	c #82A724",
"9.	c #6DA214",
"0.	c #5F9103",
"a.	c #84B124",
"  . + @ # $ $ % % & * * = - ; > , + ' ) ! ~ { + $ ] ~ ' + ^ / &   . ( _ _ _ _ _ _ & * * = - : > ; + ' > % ~ { $ + ; $ < < [ } | ",
"1 2 ( 3 ^ 4 5 % ~ ( * # ] { > > = - , > 6 ~ ! ~ { ' % { > # 7 { 1 8 8 9 9 9 8 8 8 _ 7 # 0 ~ > > = - , > 6 $ { ~   > % a < b c | ",
"' 7 & d ( 7 $ = ~ { ( ^ ' ] ~ % e e f g $ h i > ! * ~ $ $ g j % _ 9 9 9 9 9 9 9 _ k ~ # ' ] { % e e > g l h h > ! > $ i $ m n o ",
"p q q r ( 7 ( 7 ~ - * * * ; s t f g i l f g g g $ - > - i $ , $ _ 9 9 9 9 8 u u v v * ) ) ] ! 6 f g l l f g w $ $ ' g g x y ] i ",
"z * ' ~ ~ A 2 2 + ; : + * ~ B C - h s g l h h D ' ! ! i l - * * v v v v v v v v v E k k * ~ t C - h ! g l h h D ' ! ! i - y } F ",
"p * $ 5 5 G G ( 1 - -   * + j ; H ! i g i h D 6 = ! % i e > { ( I I I I I u _ _ _ 8 8 _ J + K ; H s i > i h t 6 , a 6 i e L ~ M ",
"+ @ N G ( * ~ % % ] z %   4 ~ $ > 6 - h s , ~ $ ' { { u u g s _ 8 8 8 8 8 8 9 9 8 _ E 1 & 4 ~ ~ > 6 - h s O s $ ' ~ ! g e L P M ",
"% ( A A Q # > - + ^ R / < S ( ~ - : T ! ! > t s ! ( u U U _ 9 9 9 9 9 9 _ _ E _ V V W @ ' S ( ~ - : T ! ! > t { ! ( ~ - x L X Y ",
"% 1 5 ~ r / ( * ( ' + 1 ( d * ( ~ > > > > ~ s   { * U V U V E k _ J k k k Z ` V V V U W ( { / + ~ > > > > ~ % { { * * i !  .3 > ",
"{ ' 4 ~ 7 7 & / 7 > * + 2 * < 5 5 ..0 % ; + ^   5 V U U u u (   J Z +.V V V V V _ V V W Q * ( 5 5 # p B ] - #   D ( @.$ g #.y o ",
"* 7 # ( 7 * ( 2 Q ^ C 7 N ..( * ^ b % > % % $.7 7 U U V u V ( ( 7 E u U U U U 8 9 V V 7 N N d * z b % > % 5 b * 7 * ( - j  .( $ ",
"7 * q 7 ' r ( 7   * ( %.r 7 z ( 5 * 1 S     ( D ( u u J u W D { _ 8 V V U _ 8 9 9 8 W %.+ * &.~ 5 * { S % & ( D ~ * $ t 6 *.5 o ",
"0 ^ 2 d r 7 > : 1 7 Q &.* 7 Q   5 < ~ 4 + ( { D   W u u =.Z > g ; 8 9 9 9 9 9 9 u E Z ^ G < q   1 ( ( 4 + ( { D | < { - + -.-.;.",
"~ 7 d . ' 7 + 0 + A @ & R ( + 7 ' & 0 ( ' { 7 * ' =.=.I =.` : $ ~ 8 8 V V V _ 8 W =._ & R ( + 7 7 ~ @ ~ ' ~ 7 * ' + $ t s >.Q $ ",
"7 = ~ ~ ( 1 . G r @ 7 ( @ 5 7 z * ( b ( ( 1 7 ,.' =.=.=.=.` R 2 7 ] ! E E W I I E 8 9 _ * B G '.7 ( b ( ( % 7 R ' * ] - 7 -.#.).",
"7 ; ! - 1 !.. A & & { * ( ~ 7   ( ^ 7 ' ' + + ' ~ ~.I v I =.7 * 7 ] ! -   J _ 8 9 9 9 9 k { 7   ( z 7 ' + ' + ' ~ ] ; j 0 {.].;.",
"7 $.# { ( { ( R & & ( ( & ' + B ( 3 5 7 ' * ~ % t > I v I =.s * 7 b # _ 9 8 9 8 9 9 9 9 k ' 7 B ( ,.5 ' ' * ~ % B * ! $ ' ^.{.).",
"B ' 0 & R 0 ~ * + Q z % 5 { * /.% ~ % + B ~ { ! D + I v v I =.- B =._ 8 I =._ 9 _ 9 9 9 k { 7 /.% ~ % ( B ~ { ! D $ D o ] P y + ",
"5   * > # t > 7 ( z p ( s ! - j ' ~ ; - > 6 ; ~ # > ` v I I I =.=.I W I v v =.8 _ 9 9 9 k ! - = ' ~ ] - > B ; ~ # > ! e i (.' o ",
"  % % ] > $ ^ ~ & z ( + ! D ! : > i $ , K $ = $ , 0 ` I I =.I I I I =.=.I v I k 8 8 9 8 k t ! ] f ~ - = = $ , - , = ; g h x x a ",
"( { { % 5 $ ; 7 7 N z ' ! C t - e $ ! - > > O > $ - $ Z I I I I I =.I v v =.I J 9 _ 8 8 k C t - : $ ! - : > , > $ ' $ Y h _.6 t ",
"( ' ' % ~ ' t /.7 . @ > $ ! s : , ' { ! - > > ; 6 ! s Z =.=.=.=.=.=.I v v I =._ 8 _ 8 k $ ! s > = - ! ~ ' > > e 6 s s e - f s o ",
"* ( { $ $ - C * ( 4 ( 7 * ] 0 ] ; > $ > e ' s > h g g g - K ; + * =.v v I I =.8 _ 8 8 k : ] ] ] ; * $ > , ' s > 6 g g g - j m $ ",
"0 7 { > 5 ~ ! { + 7 7 + ' /.= + $ - $ $ e - ! : s - - > - ; * 7 Z I v v I I =._ 8 8 8 k ' '.'.+ ~ - $ $ e - ! > i $ - g - (.> ;.",
"7 7 ' # ~ + > % ( / 7 ( ~ ' ' % B ~ ~ D > $ h f g $ s g $ * ' =.v v v I I =._ _ 8 8 _ k ~ + ' % B ~ { t ' $ ! : g i M g $ f m :.",
"& { ' * , ~ + % ( ( Q 7   ~ ( 5 B $ $ 6 , $ ! > : f g t % I I v v v v I I k 8 8 8 8 _ k   { ( B B $ $ 6 O - h g w > g t h <.<.| ",
"&.' 7 * ~ - ] * !.7 ( * ] p D B C $ - K > > > 6 u u W I I I v v v I I I =._ 8 8 8 8 8 _ ] p D 5 5 $ ' O > g > 6 > e $ , - <.- [.",
"( 7 7 + ~ /./.' S   1 R * ( 1 ; ' + { - g $ u u U U u v v I v v I I I +.k 8 8 8 8 8 8 9 k (   ] ' $ { - - - g 6 g : > Y ! }.% | ",
"( @ 7 ( 5 s ~ 0 ] 7 1 7 ' * 7 ; % B ~ ~ > ; U U U U E v =.I I I I =.Z 8 8 8 8 8 8 8 8 9 k * ' * B % ~ ~ > ; , $ > > , * ~ |.|.< ",
"/ Q * * ~ ] - + * r 7 * 7 ( ~ + % D t $ = # V u J u u +.I I =.` ` =.+._ 8 8 8 8 8 8 8 8 k + ( + % C t $ O K K = ; g F * p 1.D ).",
"&.& * @ * 0 + + z 7 Q   2.$.p % C t + + * = W +.+.+.+.+.Z '.( d &.d =.W _ _ _ _ _ _ _ k Z T ~.B C B + $ * = , /.> ~ ! / #  .P | ",
"7 !.7 * ' ! ~ > b / p ] K > + > = $ % - $ + W +.=.=.+.+.+.` G   7 W E W =.W W =.Z Z =.W Z ' ' > = $ % ' ~ + $ * ' ' ~ / ' X * a ",
"& 5 + p # $ $ % 1   * * /.- ; ' ; + > : ! +.W =.- * +.W W ` @ &   W E W E E E E E E W W +.' ; ' ] + > > % ~ { + + ; $ + + X } | ",
". Q ( R # 4 5 % ~ ( * # ] ~ > * O - , > 6 +.+.=.  7 +.W W ` 7 ~ . W E E W W W W W E W W +.` > > = - ] > 6 ~ s ~ { ' o   7 3.: a ",
"' 7 & ( ( 7 ~ /.~   ~ ^ ' ] s h e , g g $ h i > ! * +.W W +.j % ' W W E E W W W E E W W +.` ~ h e e g g g h ! > ! * $ $ $ 4.j o ",
"] A A r ( 7 ( * ( - * * * ] ! 6 f g i l w g g $ +.+.W W +.i , $ ] W W E E W W E E E W W +.` ! t f g l l f g f i $ - ' ;.$ x ] $ ",
"Q ; ' { ( z A / + ; , + * ~ B C - h i g l h h +.W W W W Z g * G W E W E E E E E E W +.W W ` t C - ! s g l h h D - ! | $ - 1.5.' ",
"] 7 $ B 5 G 7 ( 1 - - % * + # : H ! i g i ! t +.W W +.Z 6.; ~ ( W E E E E E E E W W W W W + # ; H h i > i h t % 0 { 6 $ O 5.s $ ",
"( A N G ( * ~ % B ] ^ 1   4 ~ $ ' 6 g 6 ! O $ +.W +.  ' , g ! s W E E E E W E E +.W W W =.4 ~ $ > 6 - h ! O ~ $ ' ~ ! ;.<.5.s { ",
"h ( / A Q R - - $ ^ R / 7 S ( ~ ' : T ! ! ' t W W +.$ ' $ g 6.f W E E E E E E E +.W W W Z S ( ~ - ; T ! ! g 6 ! ! ( $ ' { : , * ",
"% 1 !.{ + * ( * ( ' + 1 ( d / ( ~ > - * > ~ +.W W ` ] ~ h j # +.E W E E E E E W W W W W Z { / + ~ > ' > > ~ ! { & * 7.$ ! j j ) ",
"( ' S ~ 7 G & Q 7 * * + / * ( 5 B # ] % ] $ +.W W ` ] $ g # + +.E W E E E E E W W W W W Z * ( 5 5 # 0 % ) ' #   5 ( / - - # - o ",
"7 ' # + 7 G ( Q A /.S 7 N N ( * ] b B 7 % B +.W W ` + - , 0 ~ +.E W E E E E W W W W W W Z N d * '.b % ' % B b * * * ( < K <.x + ",
"7 p '.7 ' 7 ( +   * + %.( * 0 ( B *   C     +.W W ` ~ D 6 6 5 +.E W E E E E W W W W W W Z G ..~ D *   C     ( 5 ~ * ( [.6 |.|.o ",
"] A 2 d ( 7 > * 1 G Q ^ G 7 0   5 ( ( 4 + ( +.W +.' ( 7 7 : g +.E W E E E E W W W W W W =.7 &.  . ( ( S + ( { D | < { + ' m m ;.",
"~ 7 & 1 r 7 - ] + A / & N ( + 7 7 ( @ ~ ' { +.W +.+ ( 5 { - : W W E E E E W +.W W W W W +.( ' 7 7 ~ 0 { + { 7 * - + + 5   - 8.+ ",
"7 = { $ ( . . G r * ' ( * 1 7 ^ 7 ( b ( ~ % W W Z * ] ' ' * +.E W E E E E W +.W W W W +.W ` 7 0 7 ( b + ( % * 3 7 * ] < 7 : # * ",
"7 0 ! - { !.. A &   & * ( { 7   ( # 7 + ' + W W Z ] > O ] { +.E W E W E E W +.W W W W +.W ` 7   ( # r ' < - + ' ~ ] p # ] s ' ;.",
"> 3 # { ( { ( N &   ( (   ' ( % ~ 3 5 ' < * W +.B > { ( 7 5 +.E W E W E E +.+.W W W W +.W ` + B ( # 5 ' 7 * ~ % B > ~ + 7 |.~ * ",
"B 7 Q { 3 ] { p + Q &.% B ~ 7 /.% { ! + B ~ W =.D $ D % ] ! +.E W E E E E ` +.W W W +.W W ` * /.% ~ % ( B ~ ~ % D + C o * s ~ :.",
"B   ] * ,.t 7 7 ( &.p ( s ! - j ' 9.* - > t W =.H * ! , $ : +.E W E E W W 6 +.E W W +.W W +.- O ' ~ ; - > t ; $ # > ! , $ 5.4.o ",
"  B % ; > ~ K ~ { &.( - ! D ! ; > $ - = j +.W =.; = : g h s +.E W E E E =.~ +.E W W W W W +.! : > ~ - = j $ , $ , = ; g h x x o ",
"~ ~ { % 5 $ * > 7 R ^ ' ! C t g > $ ! - e +.W =.$ - $ e s ! W E W E E E Z + > W E W W W W +.t > : $ ! - * > = > $ g $ Y ! _.6 6 ",
"( ' ' % $ - 6 /.< 1 2 ' $ ! ! > O ' ! i - +.+.e 6 s s e g > W W E W E +.$ - B +.E W W W W +.s > , g ! s ' : > f 6 s M Y g 5.s t ",
"* ( { $ $ - C 7 ( 4 ( ' * ] = ] * * - ' ; +.+.> 6 - > g - j W W E W E +.- + C +.W W W W W +.0 ] ; * $ > , > ! > 6 - > F g <.: $ ",
"/ 7 ~ 7 5 ~ ! { < 7 G + ' j /.- ~ - $ - : W +.> s - - > - ] W W E E E +.5 ~ ! { +.W W W W +.= ' $ - $ $ : - ! Y s - g > - (.' ;.",
"7 7 ' 2.~ + > B ( / 7 ( & + ' % B ~ ~ D +.W +.w g i s g $ * E W E E W # ~ + > % +.W W W W +.' % 6 ~ ! t ' $ h w g $ M ;.$ (.' + ",
"& { ' * ; ~ $ { ( ( Q *   ~ ~ 5 B $ $ 6 +.W h ' : f > t h W W E E E +.> = ~ ~ % +.W W W W +.~ 5 B ~ $ % O - h > f f > 0.h O ] a ",
"..7 7 * ~ - ; * !.7 ( * 0 ] D B D $ ' /.+.+.: 6 > w $ , - W W E E E +.* ~ - 0 ; k W W +.+.+.D B 5 ~ ' O > ' > 6 > e $ a.+ <.- [.",
"( < 7 $ $ '.,.' S   . # 7 (   @ - + { - +.+.g 6 - e > ; ! W E W W W +.+ ( = /.' =.+.W W W +.  ] ' + { - F - - 6 g : > * { }.}.| ",
"& / * + 5 s ~ 0 p 7 1 ' ' p > * 6 B ~ ~ +.+.: $ > > Z Z Z =.W E E W 7 + t s $ ] Z Z =.=.=.Z ' * % % ~ ~ > ; , $ ' > @.@.~ |.D < ",
"} Q 7 * $ ; + + @ r 7 * 7 + ~ + % 5 t ~ ` K K = : - k E E k =.=.=.Z 7 * ~ ] + + @ k k k k J $ + 6 C B $ , K K O , - - 2 z 1.5 < ",
"..& 7 ] * ; + ( z 7 q { # $.] % C t + + * = ] /.* ~ k k k _ _ _ _ k G ] * = + + ^ < 0 { ,.$.; B C t + $ * , , K ' $ ! 0 &.[ P | ",
"< !.G * ' ! ~ 7 b * / ] # ' ' > = $ % - $ + $ * ' ' ~ * 7 k k k k k G * - % ~ > b * / , K ' ' ' K $ % ' ( $ $ * ' ' 9.@ 7 [ 8.| "};
