/* XPM */
static char *bef3327e5e854191b183967453d3d141R5CRMnOSWXbdmc7x[] = {
/* columns rows colors chars-per-pixel */
"70 80 21 1 ",
"  c None",
". c #262F28",
"X c #403727",
"o c #31531E",
"O c #38433B",
"+ c #3C6126",
"@ c #4F402B",
"# c #614B32",
"$ c #47782C",
"% c #427149",
"& c #4B7E51",
"* c #82603E",
"= c #977354",
"- c #A57F63",
"; c #4A9C32",
": c #56BD2F",
"> c #58B93C",
", c #54A96C",
"< c #78CD46",
"1 c #9CDF62",
"2 c #BBEA94",
/* pixels */
"                             ;;; ;;; ;;                               ",
"                          ;;;<<<;<<<;<<;;;                            ",
"                         ;<<<<1<<<11<<1<<<;;                          ",
"                       ;;<<111<<<11111111<<<;                         ",
"                       ;<<<11<<1<<11221111<<<;;                       ",
"                      ;<<111<111211222221111<<;                       ",
"                    ;;<<111111122112222221111<<;                      ",
"                   ;><<11112222221112222211111<;                      ",
"                   ;<<111222222222222222111111<<;                     ",
"                 ;;<<1221122222222222222212111<<;                     ",
"                 ;<<122221112222222222222221111<;$$$                  ",
"                ;<<1222221111122222222222222111<<;>>$$                ",
"              o$<<12222211111222222222222222111<<;<1>>$               ",
"            oo;$<<1122222112222222111222222211<<;><11>>$              ",
"            o;;;$<111122222222212221122112221<<<;>><11<>$             ",
"           o;;>>$111112222222221222111111111111<<;><<<<>$             ",
"         oo;;<<$<11112222221221111111111<<11<<1<<;>;;;>;;$ $$         ",
"         o;;<<>$<<<112222211111111111<<<<<<11<<<;>;>>>;>>>$>>$$       ",
"        o;;<<>>;$<<1122221111111111111<<<11111<;>;>><<><<<><>>>$      ",
"        o;;>>>;;$<111122211<11<11111<<<<<<111>;;>><<<<<<<<<<<>>>$$    ",
"       o$$;$$;$$$>1<1111111<<<<1111<<<<<<111>;>>>>><<111111<<><>>$    ",
"     oo>>>$>>$>>$$<<<<1111<<<<<<<<111<><<11>>>>><<<111111<<<<<<<>>$   ",
"    o>>><<><<><>$;><11111111<<<<<<1<<>><<<>>>><<<<<1111<<<<<<<<<<>>$  ",
"  oo>><<<<<<<<<<;;;<<<1<11111<<<<<<<>>>><>>><<<<<<<<<<<<<<<<<<<<>>>$  ",
"  o>>>><<<<<<<<<>;;><<<<1<1<<<<>>>>>>><<<<<<<<><<<<<<<<<<<<1111<<>>$$ ",
" o>>><<<1111<11<<>;>>><<<<<<<<<<>>;;><<<<<<<>>>><<<<<<<<<<<11111<<>$$ ",
"o>>><<1122111211<<>>>>>>><<<<<<<<>;>>><<<<<>>>>>>><><<><><<<1111<<>$oo",
"o>>><<11211<<1111<>><>>><<<<<<<<>>><<<<<>>>>>>;;>>>>><>>>><<1111<<>;$o",
"o>>><<<111<<<<<1<<<><<<<<<<>;;>><<<<<<<>>>>>;;;;;;;>>>>>>>><111<<>>>$o",
" o>>><<<<<<<<<<<<<<><<<<>>>>;;;;><<<<>>>>>;;;;;;;;;;>>>>><<<<1<<<<>;o ",
" o;>>><<<<<>><<>><<<<<>;;;>>>>;;;>>>;;;;>;;;;;;<<<<;;;>>><<<<<<<<>>;o ",
"o>;>;;><<<>>>>>>;;><>>;;;>>>>><<;;;;;;><<><>>;><<<<<;;>>>>><<<<<<<>>$o",
"o>;>>;;>>>>;;;>;;;;;>;;;;><<<<<<><;;>><<<<<<<>>><<<<<<>>>><<<<<<<>>;$o",
"o>;>>>;;;>;;;>>>>>;;;;;>>>>><<<<<<<<><<<<<<<<>>><<1<1<<>>>>><<<<>>;$o ",
" o$;>>>;;;;;<<<><<<>;;>><<<<<<11<<<<<<<111<<>>><<<111<<>>>>>><<>>;;o  ",
" .$$;>>;;;;>><<<<1<<<><<<<<<<111111<<11111<<<>><<11111<<<>;>>>>>>;$$  ",
" .$$;;>>>>;;>><<1111<<<<<<111112221111221<<<<>><<<11111<<<;;>>>>;$$$. ",
"  .$$$>>>>>><<<<111<<<<><<<<111222112222<<<<<>><<<<111<<<<>;;;;;$$$$$ ",
"   ..$;;>>>>><><1<<>>>><<<<<<11122212111<<><>>>><<<<111<<<>$$$;$$$;$$.",
"    .$;;;>>>>>><<<<<>><<<<<<<<<111111111<<>>>>>>>><<<<<<>>>;;$$$$;;;$.",
"   .$;;;;;>>>>>>>>><<<<<>><<<<<<<11<11<<<>>>>>>>>>>><<>>>>;;;;>>;;;;$.",
"  .$$;>>;;;;>>>>>>>>>>>>>>>><<<<<11<<<<<>>>>>>>>>>>>>>>>;;;>>><<>>>$. ",
"  .$;>>>>>;;;>>>>;>>;>>>>>>>>><<<<<<<<<>>>>>>>>>>>>>;;;;;;;;><<<>>$$. ",
"  .$;>><<>>;;>>>>;;;;;;;>>>>>>><<<<<<<<>>>>;>;;>>;;;$$$OO$;;;><>>>$$. ",
"  .$;>><<<>;;;;;;;;;;$$;;>>>>>><>><<<<>>>;>;;;;;;;;$$;$$$$o;;;>>>;$.  ",
"  .$$;>><>>>;;;;$$$$$$$$$;;>;>>>><<<><>>>;;$$$;;;;;;;>>>;$$oo;;;$$$.  ",
"   .$;>>>>><<>>>>;$$$$;$$$;;;;>>>>>>>>>>;;$$$;;;>>>>>>>>>;;$$$$$$$..  ",
"   .$$>>>><<<<>>>;$$$$;;;$$;;;;;>>>>>;;$$$$$;;>>>><<<<<>>;;;$o$$..    ",
"   .$$>;;><<>>>;;$$$$$$;;;;;>;;;;>>>;;$$;$$;>>><<<<<<<<>>;;$$o..      ",
"    .$$$;>>;;>;;;$$;$$$$$;;;>>>;;;;;;;;;>;$>>><<<<<<<<>>>;$$$.        ",
"     .$$$;;;;;;$$$;;;$$$$$;;>>>>>>;;;;;>>>$>>><<<<<>>>>>>;$$$.        ",
"     ..$$$$;;$$$$$;o;;$$$$$;;;>>><<<>>>>>>;>>>><<<<>>>>>;;$$$.        ",
"       .$$$$$$oo$;oo;;$$o$$$;;;;><<>>><<>>;;;;>>>>>>;;;;$$$$.         ",
"        ....... .ooooo$;oooo$$;;;>>>><<<<>;$;;;$$$$;;;$$$$$.          ",
"                 ...ooo....oo$$$;;;>>><>>>$$;$$$..$$$$$$$$..          ",
"                    ... X@@.ooo$$;;;;>>;;;$$$$... ........            ",
"                        X@@..oo$$$$;;;;;;$$$$.                        ",
"                        X#@#@.ooo$$$$$$$$$$$.                         ",
"                        X###@@..ooo$$$$$$$$..                         ",
"                     ,,&X*###@@@.....$$$...@X,,                       ",
"                  ,,,&;&X*###@@@@@#@@...@@@@X&,,,,                    ",
"                ,,,,&&;&X*###@@@@@#@@@@@@@@@X&&,,,,,                  ",
"               ,,,&&&+;+X*#*#@@@@##@@#@@#@@#X&&&&,,,,                 ",
"             ,,,,&+&XXX#*##*##@#@#*@@#@@#@@#@XX&&&,,,,,               ",
"            ,,,,,&;&X#**#X#*####@#*@@#@@#@##@#X&++,,,,                ",
"             ,,,&+:++X##XX**##X##*=#@##@#@##XX+++&&,,,,               ",
"            ,,,&&;:+:+XXX#*###X*#*=##########XX+&&&&,,,,              ",
"           ,,,,,+++;:;;X#==*##X*#**#X*#####X###XX&&,,,,               ",
"            ,,,&&%%+++X*=-:*##X*#*=*X###+#*#XXXX&&&&,,,,,             ",
"           ,,,,,&&%%%X#--=#:#X:*#==##X+X+#*=#X+&&&&,,,,,              ",
"           ,,,,,&&&&X*==*#X;X:+#*=-*#X;+;+#*=*X&&&&&&,,               ",
"             ,,,,&&X###XX++;X;+X*--*#X:+:+X##**X&&,,,,,,              ",
"            ,,,,&&&XXXX%%++++;+X#=-#X;;;;;+XXX##X&&,,,,,              ",
"             ,,,,,&&%%%%%%%%+++%X*=#X++++&+++&XXX,,,,,                ",
"              ,,,,,,&&&&&&&%%%%%X#=#X+%&&&&&&&&&,,,,,,,               ",
"                 ,,,,&&&&&&&&&&&&X*X&&&&&&&&&&,,,,,,,                 ",
"                ,,,,,,,&&&&&&&&&&X#X&&&&&&&&&&&,,,,,                  ",
"                  ,,,,,,,,,&&&&&&&X&&&&&&,,,,,,,,,                    ",
"                     ,,,,,,,,,,,,,,,,,,,,,,,,,                        ",
"                         ,,,,,,,,,,,,,,,,,,,                          "
};
